REM DIRINDEX 1\2,1\3,1\4
REM DIRNAME folder01,folder02,folder03,folder04
TITLE ""
FILE "047 047_CHAPTER 2_Lesson 1_TOEFL_3900.mp3" MP3
  TRACK 01 AUDIO
    TITLE "4:cjc151_2011"
    INDEX 01 00:00:00
  TRACK 02 AUDIO
    TITLE "0:"
    INDEX 01 00:01:42
  TRACK 03 AUDIO
    TITLE "4:cjc151_2012"
    INDEX 01 00:02:20
  TRACK 04 AUDIO
    TITLE "0:"
    INDEX 01 00:03:53
  TRACK 05 AUDIO
    TITLE "2:cjc151_2013"
    INDEX 01 00:04:36
  TRACK 06 AUDIO
    TITLE "0:"
    INDEX 01 00:05:61
  TRACK 07 AUDIO
    TITLE "3:cjc151_2014"
    INDEX 01 00:07:45
  TRACK 08 AUDIO
    TITLE "0:"
    INDEX 01 00:11:19
  TRACK 09 AUDIO
    TITLE "2:cjc151_2015"
    INDEX 01 00:13:08
  TRACK 10 AUDIO
    TITLE "0:"
    INDEX 01 00:14:07
  TRACK 11 AUDIO
    TITLE "3:cjc151_2016"
    INDEX 01 00:15:72
  TRACK 12 AUDIO
    TITLE "0:"
    INDEX 01 00:19:44
  TRACK 13 AUDIO
    TITLE "2:cjc151_2017"
    INDEX 01 00:21:35
  TRACK 14 AUDIO
    TITLE "0:"
    INDEX 01 00:22:40
  TRACK 15 AUDIO
    TITLE "3:cjc151_2018"
    INDEX 01 00:24:18
  TRACK 16 AUDIO
    TITLE "0:"
    INDEX 01 00:28:04
  TRACK 17 AUDIO
    TITLE "2:cjc151_2019"
    INDEX 01 00:29:68
  TRACK 18 AUDIO
    TITLE "0:"
    INDEX 01 00:30:63
  TRACK 19 AUDIO
    TITLE "3:cjc151_2020"
    INDEX 01 00:32:45
  TRACK 20 AUDIO
    TITLE "0:"
    INDEX 01 00:36:15
  TRACK 21 AUDIO
    TITLE "2:cjc151_2021"
    INDEX 01 00:38:02
  TRACK 22 AUDIO
    TITLE "0:"
    INDEX 01 00:39:09
  TRACK 23 AUDIO
    TITLE "3:cjc151_2022"
    INDEX 01 00:40:66
  TRACK 24 AUDIO
    TITLE "0:"
    INDEX 01 00:43:74
  TRACK 25 AUDIO
    TITLE "2:cjc151_2023"
    INDEX 01 00:45:63
  TRACK 26 AUDIO
    TITLE "0:"
    INDEX 01 00:46:66
  TRACK 27 AUDIO
    TITLE "3:cjc151_2024"
    INDEX 01 00:48:48
  TRACK 28 AUDIO
    TITLE "0:"
    INDEX 01 00:52:41
  TRACK 29 AUDIO
    TITLE "2:cjc151_2025"
    INDEX 01 00:54:30
  TRACK 30 AUDIO
    TITLE "0:"
    INDEX 01 00:55:40
  TRACK 31 AUDIO
    TITLE "3:cjc151_2026"
    INDEX 01 00:57:27
  TRACK 32 AUDIO
    TITLE "0:"
    INDEX 01 01:01:27
  TRACK 33 AUDIO
    TITLE "2:cjc151_2027"
    INDEX 01 01:03:16
  TRACK 34 AUDIO
    TITLE "0:"
    INDEX 01 01:04:19
  TRACK 35 AUDIO
    TITLE "3:cjc151_2028"
    INDEX 01 01:05:73
  TRACK 36 AUDIO
    TITLE "0:"
    INDEX 01 01:10:04
  TRACK 37 AUDIO
    TITLE "2:cjc151_2029"
    INDEX 01 01:11:68
  TRACK 38 AUDIO
    TITLE "0:"
    INDEX 01 01:12:60
  TRACK 39 AUDIO
    TITLE "3:cjc151_2030"
    INDEX 01 01:14:43
  TRACK 40 AUDIO
    TITLE "0:"
    INDEX 01 01:17:61
  TRACK 41 AUDIO
    TITLE "2:cjc151_2031"
    INDEX 01 01:19:50
  TRACK 42 AUDIO
    TITLE "0:"
    INDEX 01 01:20:48
  TRACK 43 AUDIO
    TITLE "3:cjc151_2032"
    INDEX 01 01:22:31
  TRACK 44 AUDIO
    TITLE "0:"
    INDEX 01 01:25:74
  TRACK 45 AUDIO
    TITLE "2:cjc151_2033"
    INDEX 01 01:27:57
  TRACK 46 AUDIO
    TITLE "0:"
    INDEX 01 01:28:63
  TRACK 47 AUDIO
    TITLE "3:cjc151_2034"
    INDEX 01 01:30:46
  TRACK 48 AUDIO
    TITLE "0:"
    INDEX 01 01:34:10
  TRACK 49 AUDIO
    TITLE "2:cjc151_2035"
    INDEX 01 01:36:01
  TRACK 50 AUDIO
    TITLE "0:"
    INDEX 01 01:37:09
  TRACK 51 AUDIO
    TITLE "3:cjc151_2036"
    INDEX 01 01:38:73
  TRACK 52 AUDIO
    TITLE "0:"
    INDEX 01 01:42:22
  TRACK 53 AUDIO
    TITLE "2:cjc151_2037"
    INDEX 01 01:44:09
  TRACK 54 AUDIO
    TITLE "0:"
    INDEX 01 01:45:40
  TRACK 55 AUDIO
    TITLE "3:cjc151_2038"
    INDEX 01 01:47:25
  TRACK 56 AUDIO
    TITLE "0:"
    INDEX 01 01:50:56
  TRACK 57 AUDIO
    TITLE "2:cjc151_2039"
    INDEX 01 01:52:44
  TRACK 58 AUDIO
    TITLE "0:"
    INDEX 01 01:53:51
  TRACK 59 AUDIO
    TITLE "3:cjc151_2040"
    INDEX 01 01:55:40
  TRACK 60 AUDIO
    TITLE "0:"
    INDEX 01 01:58:64
  TRACK 61 AUDIO
    TITLE "2:cjc151_2041"
    INDEX 01 02:00:47
  TRACK 62 AUDIO
    TITLE "0:"
    INDEX 01 02:01:56
  TRACK 63 AUDIO
    TITLE "3:cjc151_2042"
    INDEX 01 02:03:36
  TRACK 64 AUDIO
    TITLE "0:"
    INDEX 01 02:07:12
  TRACK 65 AUDIO
    TITLE "2:cjc151_2043"
    INDEX 01 02:09:07
  TRACK 66 AUDIO
    TITLE "0:"
    INDEX 01 02:10:24
  TRACK 67 AUDIO
    TITLE "3:cjc151_2044"
    INDEX 01 02:12:11
  TRACK 68 AUDIO
    TITLE "0:"
    INDEX 01 02:15:13
  TRACK 69 AUDIO
    TITLE "2:cjc151_2045"
    INDEX 01 02:17:02
  TRACK 70 AUDIO
    TITLE "0:"
    INDEX 01 02:18:02
  TRACK 71 AUDIO
    TITLE "3:cjc151_2046"
    INDEX 01 02:19:64
  TRACK 72 AUDIO
    TITLE "0:"
    INDEX 01 02:22:74
  TRACK 73 AUDIO
    TITLE "2:cjc151_2047"
    INDEX 01 02:24:59
  TRACK 74 AUDIO
    TITLE "0:"
    INDEX 01 02:25:61
  TRACK 75 AUDIO
    TITLE "3:cjc151_2048"
    INDEX 01 02:27:50
  TRACK 76 AUDIO
    TITLE "0:"
    INDEX 01 02:31:12
  TRACK 77 AUDIO
    TITLE "2:cjc151_2049"
    INDEX 01 02:32:74
  TRACK 78 AUDIO
    TITLE "0:"
    INDEX 01 02:34:11
  TRACK 79 AUDIO
    TITLE "3:cjc151_2050"
    INDEX 01 02:36:00
  TRACK 80 AUDIO
    TITLE "0:"
    INDEX 01 02:39:53
  TRACK 81 AUDIO
    TITLE "2:cjc151_2051"
    INDEX 01 02:41:42
  TRACK 82 AUDIO
    TITLE "0:"
    INDEX 01 02:42:42
  TRACK 83 AUDIO
    TITLE "3:cjc151_2052"
    INDEX 01 02:44:23
  TRACK 84 AUDIO
    TITLE "0:"
    INDEX 01 02:48:32
  TRACK 85 AUDIO
    TITLE "2:cjc151_2053"
    INDEX 01 02:50:19
  TRACK 86 AUDIO
    TITLE "0:"
    INDEX 01 02:51:15
  TRACK 87 AUDIO
    TITLE "3:cjc151_2054"
    INDEX 01 02:52:67
  TRACK 88 AUDIO
    TITLE "0:"
    INDEX 01 02:55:58
  TRACK 89 AUDIO
    TITLE "2:cjc151_2055"
    INDEX 01 02:57:43
  TRACK 90 AUDIO
    TITLE "0:"
    INDEX 01 02:58:52
  TRACK 91 AUDIO
    TITLE "3:cjc151_2056"
    INDEX 01 03:00:30
  TRACK 92 AUDIO
    TITLE "0:"
    INDEX 01 03:04:59
